PathFileType	4	(X/Y/Z)	C:/Users/beibeiliu/ov580/test_trc\sequence.18_training_dense_right.trc
DataRate	CameraRate	NumFrames	NumMarkers	Units	OrigDataRate	OrigDataStartFrame	OrigNumFrames
120	120	21	19	mm	120	1	48
Frame#	Time	ThumbCMC			ThumbMCP			ThumbIP			ThumbTip			IndexMCP			IndexPIP			IndexTip			MiddleMCP			MiddlePIP			MiddleTip			RingMCP			RingPIP			RingTip			PinkyMCP			PinkyPIP			PinkyTip			BackHand1			BackHand2			BackHand3	
		X0	Y0	Z0	X1	Y1	Z1	X2	Y2	Z2	X3	Y3	Z3	X4	Y4	Z4	X5	Y5	Z5	X6	Y6	Z6	X7	Y7	Z7	X8	Y8	Z8	X9	Y9	Z9	X10	Y10	Z10	X11	Y11	Z11	X12	Y12	Z12	X13	Y13	Z13	X14	Y14	Z14	X15	Y15	Z15	X16	Y16	Z16	X17	Y17	Z17	X18	Y18	Z18	
0	0	160.14	42.2165	134.012	131.006	64.8109	120.034	107.301	61.6541	100.617	91.6497	44.4059	88.5811	150.219	35.8241	61.3682	138.922	46.5255	37.6344	134.102	52.8107	18.6044	130.96	9.38796	59.4795	116.301	15.9029	38.0197	95.8287	17.448	16.6165	107.162	12.0621	75.7576	88.6206	33.1791	89.3882	104.087	37.8273	120.43	100.442	2.12311	90.7441	88.5553	23.9604	107.631	109.071	28.0838	131.176	148.24	-13.4206	106.782	164.139	-17.2919	135.422	173.924	10.2157	117.854	
1	0.00833333	172.334	34.3328	127.889	148.609	52.0326	114.859	126.645	49.5589	90.2294	109.836	37.1995	78.1134	171.527	20.0798	60.6497	167.525	30.1165	35.4833	161.126	31.3776	11.8473	153.4	-2.53125	58.6153	138.646	1.03192	31.2225	123.429	0.860526	8.70443	126.669	3.49738	69.4719	105.303	20.3076	80.2497	121.59	30.201	111.434	117.669	-7.23348	86.6739	105.17	17.5693	99.7531	127.121	21.175	122.176	159.609	-24.0836	110.119	170.219	-26.0823	140.575	186.328	-2.16429	118.667	
2	0.0166667	188.03	23.6379	131.504	164.831	37.5575	106.325	147.451	36.5018	80.8479	133.197	18.4066	69.7898	195.841	-1.30304	62.1215	197.017	6.72439	39.7007	193.146	5.09443	14.5149	175.638	-23.5405	55.6614	167.273	-22.2703	31.1218	153.995	-24.1541	4.92281	147.233	-16.0629	67.6138	131.192	7.21133	70.0696	138.617	17.7456	102.65	136.572	-20.8069	81.1796	123.73	3.38854	89.9081	138.466	12.1072	114.696	172.453	-38.3886	113.721	176.95	-38.8971	144.134	198.892	-17.9221	126.288	
3	0.025	196.353	18.3201	127.837	175.529	30.3998	102.137	160.887	19.7737	74.0533	147.509	0.53849	62.9317	215.331	-13.3425	69.1607	217.33	-9.84662	40.0076	216.323	-15.8781	17.7552	194.057	-41.7972	64.818	188.278	-44.5346	36.212	179.653	-48.3121	11.5393	167.142	-31.4405	66.907	146.892	-6.95691	68.107	153.404	5.80957	97.3853	154.192	-36.4617	82.7433	139.795	-12.3145	83.971	152.514	1.80817	113.69	189.397	-45.6789	120.334	186.02	-39.5898	153.218	211.507	-20.2127	129.133	
4	0.0333333	200.375	18.8503	125.058	179.741	22.4445	97.6558	169.781	9.4332	70.6339	160.89	-15.4156	61.6288	229.905	-18.2394	70.9828	234.326	-15.5414	48.6874	235.482	-24.2307	24.7341	216.746	-43.2737	74.2526	213.182	-52.8144	43.237	210.048	-60.3116	19.8238	186.559	-41.9064	75.1645	163.857	-18.9508	66.7644	163.358	-2.93013	96.422	170.399	-48.7827	87.7174	153.532	-20.9953	84.2456	161.924	-7.02014	111.616	201.688	-45.398	129.598	195.312	-40.3073	159.144	216.433	-19.6607	138.771	
5	0.0416667	194.392	24.2192	122.615	176.306	19.9021	95.732	170.823	6.65025	72.6156	170.41	-18.6531	62.1278	236.674	-1.71372	74.9381	241.952	-6.77149	49.5193	250.863	-6.39673	25.7286	230.555	-34.3623	78.4721	233.02	-45.0978	52.0598	235.006	-52.112	26.5401	201.194	-38.2706	73.7634	173.525	-28.3184	65.7846	168.911	-8.37964	91.2199	184.906	-49.2026	86.385	165.583	-29.8454	82.1031	165.67	-9.57192	112.799	212.034	-40.0825	130.416	204.538	-29.0563	157.614	221.073	-7.16632	136.955	
6	0.05	181.158	27.3137	121.965	164.664	21.5239	91.6872	166.067	3.1276	65.5096	173.196	-21.5918	57.8881	231.271	16.3634	74.0379	238.164	19.2289	48.261	247.663	11.4458	26.9034	237.584	-12.4348	77.1994	243.64	-22.5342	52.2148	249.714	-32.7614	26.3437	210.209	-33.1572	74.1608	180.621	-30.3567	65.862	168.518	-14.3212	92.185	200.197	-42.433	89.1172	170.131	-33.5894	85.464	167.986	-13.0827	112.71	220.016	-20.857	132.59	207.432	-13.6124	158.614	215.885	11.4915	135.644	
7	0.0583333	162.459	26.605	123.824	151.354	13.7273	91.0291	157.775	-3.01125	66.6417	174.616	-24.8791	57.6131	214.514	32.3621	71.0324	221.79	32.0992	43.9487	231.993	33.5477	21.5855	231.143	2.4619	73.2758	239.764	-3.66186	48.2526	250.984	-14.5857	21.2428	211.067	-24.997	72.5494	182.185	-32.5381	66.0261	166.779	-17.6053	89.9161	206.275	-36.2508	89.1043	176.659	-37.0754	83.1151	163.916	-19.4452	111.607	220.482	-6.50289	126.628	205.002	-3.71035	158.853	202.07	24.7245	135.255	
8	0.0666667	150.379	15.2281	119.481	137.708	-0.365192	92.2093	147.301	-13.9116	69.8397	167.643	-30.3618	58.5715	192.353	33.1469	65.4977	196.269	37.6475	41.2087	205.356	38.433	21.1792	216.238	11.2489	70.1061	226.247	5.2216	41.5806	233.7	0.206556	20.7133	206.61	-16.0116	72.9119	183.38	-34.5388	63.6675	163.772	-26.234	93.433	204.75	-33.885	86.8357	175.388	-40.1943	85.88	163.163	-29.4745	112.783	213.801	0.224504	125.289	201.024	0.853793	153.721	186.177	24.4904	132.542	
9	0.075	133.246	8.23477	123.502	126.617	-14.2066	94.7916	136.904	-27.0618	72.4145	162.267	-39.1798	61.4732	172.238	25.9305	61.1802	169.265	28.6222	38.9758	178.376	29.8406	11.9772	197.301	12.5822	61.3925	207.125	3.37624	36.4538	214.187	-2.49802	14.2372	196.631	-18.1861	71.8453	176.793	-41.0598	66.131	157.616	-34.9447	94.499	200.268	-35.0008	87.8067	173.06	-47.7315	90.6179	157.438	-32.5412	114.02	196.524	7.4074	121.723	191.624	7.30126	149.053	172.551	25.2892	129.565	
10	0.0833333	127.675	1.00971	125.601	117.753	-25.2456	100.789	127.058	-42.3173	79.592	154.335	-51.1167	71.0235	152.463	14.1975	63.2999	150.026	11.6316	33.5632	158.832	8.43748	12.631	182.377	1.17737	60.791	190.583	-8.96794	38.7901	195.299	-21.8333	13.4064	184.838	-29.626	72.5723	167.349	-53.2577	75.9849	149.798	-45.7834	104.491	192.464	-39.4991	92.45	167.843	-53.9033	98.9662	151.955	-35.4163	123.748	186.879	8.12893	120.847	182.921	13.776	150.128	159.442	21.7265	127.266	
11	0.0916667	119.535	1.28237	135.985	110.736	-25.3009	115.89	114.372	-47.1606	90.7014	136.677	-60.7964	79.5368	137.177	0.997239	62.9691	135.036	-7.38935	38.1582	136.068	-15.0556	14.2771	163.557	-11.7934	63.8665	168.131	-29.1319	38.901	165.881	-45.5388	16.376	169.06	-40.8539	77.4072	151.394	-64.0604	85.8731	134.507	-51.5855	114.366	173.317	-48.4459	94.7912	151.154	-61.0361	110.228	142.153	-39.9423	132.131	182.295	-0.848429	114.953	179.418	10.3279	146.184	151.614	19.0297	121.974	
12	0.1	114.924	15.2091	138.588	96.3727	-9.42141	123.497	89.2716	-29.3167	105.567	100.442	-50.1237	90.3924	126.234	3.23932	63.5767	119.334	-7.91661	42.8651	113.393	-15.28	23.977	145.846	-18.8849	61.5495	141.026	-40.4037	42.2663	131.28	-56.8821	24.7126	145.099	-43.7253	78.2538	121.636	-63.2735	88.339	106.476	-49.2321	113.704	149.591	-55.6125	98.7182	124.102	-57.8774	112.564	120.205	-33.8542	132.969	173.327	-6.91606	114.842	176.444	2.61711	144.192	153.847	21.8898	124.73	
13	0.108333	123.223	24.3381	136.299	91.5877	11.8987	127.222	76.7184	-3.21183	110.115	72.5342	-24.237	97.1817	125.65	8.67814	66.9242	112.417	2.6751	43.8152	99.6317	-4.61285	21.0084	137.011	-18.3607	66.6191	122.715	-31.2322	44.7474	102.504	-46.3673	23.9617	128.611	-40.2747	75.331	100.779	-44.8808	73.3698	79.6237	-41.033	95.8412	126.591	-52.1935	100.369	97.9792	-43.9247	113.144	99.0148	-21.4558	129.128	164.743	-14.8316	116.884	173.388	-8.5019	141.055	159.693	19.2905	122.93	
14	0.116667	131.704	32.5909	134.895	95.8576	31.8837	129.481	75.8884	20.041	112.494	63.8462	-2.08789	95.8532	129.628	18.0595	61.3972	113.453	14.5566	40.8406	101.602	13.5446	22.2698	130.694	-8.56356	62.3451	115.936	-19.2581	42.9855	95.1776	-24.5011	19.7236	120.579	-31.6337	73.6132	90.7313	-31.9578	61.5888	62.6589	-21.791	69.5577	110.018	-40.2716	97.8795	82.7362	-30.1379	107.452	87.6242	-1.37313	126.541	156.849	-23.4529	115.054	169.805	-15.2126	140.744	162.645	11.9823	118.815	
15	0.125	142.309	39.0283	131.359	106.759	42.3565	124.766	83.7263	36.3063	108.456	71.1274	16.9163	94.8146	140.005	25.2757	59.3558	125.323	28.5957	37.0582	115.84	28.4927	17.2039	132.432	-1.88669	57.2045	118.326	-2.59619	34.2715	105.259	-5.33675	13.185	118.253	-16.4801	67.4943	95.4402	-20.8235	54.7568	67.6328	-9.91048	44.9416	102.917	-26.9294	92.0385	79.3031	-10.1848	98.9522	83.0631	15.6618	118.181	153.455	-24.3579	112.958	164.859	-22.7533	136.824	168.673	9.22179	119.997	
16	0.133333	153.826	35.5898	129.047	120.122	49.5739	115.989	98.4442	40.5153	96.6526	83.9308	22.221	85.5074	152.934	23.2056	55.4859	143.911	29.2665	34.3063	134.605	25.1307	10.6593	143.007	-1.87294	57.2643	130.638	-2.25542	33.7264	118.381	-8.74242	10.7397	123.868	-13.5133	68.6406	101.487	-11.3475	47.9791	82.0439	-3.86449	30.316	105.754	-20.2338	88.6051	85.3585	5.5323	90.7827	90.6923	28.8372	110.165	153.859	-24.048	112.298	164.069	-25.2921	139.941	173.801	3.19857	120.125	
17	0.141667	168.86	30.6956	124.676	137.281	41.344	107.366	117.105	41.4038	89.2923	102.277	22.3522	77.6049	170.441	6.25817	55.1893	165.118	10.4348	32.838	160.881	8.38715	11.4802	154.627	-17.7973	56.7334	146.354	-20.4628	31.9159	142.257	-24.7711	8.09907	134.528	-22.4509	65.6832	113.752	-22.6525	45.6428	103.432	-16.7443	26.5337	114.784	-20.2689	83.744	98.0882	5.05097	84.2949	100.758	28.5175	103.056	158.376	-32.8651	116.116	167.35	-30.9487	146.393	184.819	-5.3922	122.315	
18	0.15	185.439	21.0501	127.832	155.779	29.9078	101.552	137.364	29.2534	81.6466	120.875	8.04282	68.0512	195.102	-12.823	62.5007	191.94	-13.2239	39.4468	189.849	-20.7707	13.3365	178.187	-37.5355	61.6168	170.577	-43.9939	42.1102	166.577	-55.545	14.9883	149.645	-43.403	74.659	138.259	-43.8089	51.6527	126.154	-41.9108	26.1564	131.754	-35.686	87.3471	117.737	-7.23385	78.1307	120.742	15.6186	93.5575	171.618	-41.9132	120.81	174.761	-35.4402	150.893	195.591	-21.5153	129.05	
19	0.158333	192.783	15.2414	125.16	166.44	18.3158	98.5144	151.224	13.5393	78.7907	137.058	-7.73555	64.8493	211.932	-21.5574	70.1811	214.485	-23.3414	44.11	217.877	-28.8071	22.6455	195.212	-50.6499	69.201	195.425	-57.4736	46.0704	198.837	-70.2214	21.9568	169.449	-56.0079	73.7051	162.277	-58.5708	51.3375	151.328	-61.7777	25.192	150.069	-46.6735	88.5703	133.449	-23.9743	75.4285	140.74	6.23727	88.1107	185.203	-47.9457	124.152	183.813	-41.3284	153.581	205.713	-24.3463	136.662	
20	0.166667	191.651	15.5887	124.522	168.171	18.3546	99.063	154.236	8.411	72.3664	150.309	-19.8939	66.916	222.77	-18.4437	71.3403	228.848	-15.2845	47.5226	234.396	-22.1085	25.9907	216.476	-41.6186	75.8389	219.208	-52.2735	53.6638	230.874	-63.7256	27.512	192.4	-56.7957	76.5578	186.272	-63.4905	52.3016	177.756	-71.6571	31.6459	164.329	-56.0186	87.6954	146.185	-36.9137	75.43	144.716	-6.31735	89.3971	196.539	-47.3668	132.879	194.057	-38.0927	159.494	215.686	-13.6456	133.509	
